<svg width="32" height="32" viewBox="0 0 32 32" fill="none" xmlns="http://www.w3.org/2000/svg">
  <!-- Adding padding to center the logo in a square format -->
  <g transform="translate(0, 3.5)">
    <path d="M17.8776 5.21878C17.4492 5.99759 17.1491 6.80011 16.9773 7.6263C16.7745 8.69734 16.7998 9.791 17.053 10.9071C17.3219 12.044 17.8625 13.1537 18.6749 14.2361L22.8366 19.781C22.7204 19.9922 22.595 20.2018 22.4599 20.4095C21.8319 21.3466 21.0325 22.1852 20.0619 22.9254C19.0913 23.6655 18.0629 24.2206 16.9769 24.5906C15.8958 24.924 14.8242 25.0538 13.7622 24.9799C12.6845 24.8852 11.6474 24.5633 10.6507 24.0141C9.65904 23.4283 8.75694 22.5943 7.94452 21.5119L0 10.9268L3.77934 8.04482L11.513 18.3489C12.2941 19.3897 13.2007 20.0568 14.2326 20.35C15.2851 20.6275 16.3689 20.341 17.4841 19.4906C18.5993 18.6402 19.1675 17.6669 19.1889 16.5705C19.2103 15.4742 18.8304 14.4055 18.0492 13.3647L10.3156 3.06067L14.0949 0.178818L17.8776 5.21878ZM23.7374 0.409431C24.8185 0.0760149 25.8901 -0.0537607 26.9521 0.0200862C28.0298 0.114755 29.0669 0.436731 30.0636 0.985911C31.0552 1.57166 31.9573 2.4057 32.7698 3.48814L40.7143 14.0732L36.9351 16.9552L29.2014 6.65108C28.4203 5.61027 27.5137 4.94319 26.4818 4.64995C25.4293 4.37246 24.3454 4.65898 23.2302 5.50937C22.115 6.35975 21.5468 7.33311 21.5254 8.42946C21.504 9.52585 21.8839 10.5945 22.6651 11.6353L30.3987 21.9393L26.6195 24.8212L22.8366 19.781C23.2649 19.0022 23.5652 18.1999 23.737 17.3737C23.9397 16.3027 23.9146 15.209 23.6613 14.0929C23.3925 12.956 22.8518 11.8463 22.0394 10.7639L17.8776 5.21878C17.9938 5.00762 18.1194 4.79821 18.2544 4.59052C18.8824 3.65343 19.6817 2.81479 20.6524 2.07464C21.623 1.3345 22.6513 0.779415 23.7374 0.409431Z" fill="#232323" transform="scale(0.75)"/>
  </g>
</svg>